{"title":"Frankenweenie (2012) [XviD - Italian English  Ac3 5.1 - Sub Ita ","uid":10724095,"size":1875231954,"categoryP":"video","categoryS":"movies","magnet":"?xt=urn:btih:91b90c5db3b797527c164b06751a7bafb388e6ba&amp;dn=Frankenweenie+%282012%29+%5BXviD+-+Italian+English++Ac3+5.1+-+Sub+Ita+&amp;tr=udp%3A%2F%2Ftracker.openbittorrent.com%3A80&amp;tr=udp%3A%2F%2Fopen.demonii.com%3A1337&amp;tr=udp%3A%2F%2Ftracker.coppersurfer.tk%3A6969&amp;tr=udp%3A%2F%2Fexodus.desync.com%3A6969","seeders":9,"leechers":4,"uploader":"robbyrs4","files":4,"time":1407527460,"description":"Frankenweenie (2012) [XviD - Italian English  Ac3 5.1 - Sub Ita Eng] MIRCrew\n\n\n\n\n\n\n[center][color=green][b][img]http://s19.postimg.org/mqmhlwtlf/Mircrew_original_red_skull.png[/img]\n\n[u]NO FOUND ONLY ORIGINAL RELEASE[/u]\n\n\nFrankenweenie (2012)\n\n\n[img]http://ia.media-imdb.com/images/M/MV5BMjIxODY3MjEwNV5BMl5BanBnXkFtZTcwOTMzNjc4Nw@@._V1_SX214_AL_.jpg[/img]\n\n\n\n[URL=http://www.imdb.com/title/tt1142977/][IMG]http://www.userlogos.org/files/logos/Sucka/imdb_new.png[/IMG][/URL]  \n\n[img]http://s19.postimage.org/bgh0za7kj/banner_scheda.gif[/img]\n\n\nTitolo originale \tFrankenweenie\nLingua originale \tInglese\nPaese di produzione \tUSA\nAnno \t2012\nDurata \t87 minuti\nColore \tB/N\n\nGenere \tanimazione, commedia\nRegia \tTim Burton\nSoggetto \tTim Burton (da Mary Shelley)\nSceneggiatura \tJohn August\nProduttore \tTim Burton, Allison Abbate\nProduttore esecutivo \tDon Hahn\nArt director \tTim Browning\nFotografia \tPeter Sorg\nMontaggio \tChris Lebenzon, Mark Solomon\nMusiche \tDanny Elfman\nScenografia \tRick Heinrichs\n\n\n[img]http://s19.postimage.org/fbp0flg3z/banner_cast.gif[/img]\n\n\n\n    Charlie Tahan: Victor Frankenstein\n    Winona Ryder: Elsa van Helsing\n    Catherine O'Hara: Susan Frankenstien/insegnante di ginnastica/Stranella\n    Martin Short: Ben Frankenstein/Nassor/Sig. Bergermeister\n    Martin Landau: Sig. Rzykruski\n    Atticus Shaffer: Edgar\n    Robert Capron: Bob\n    Conchata Ferrell: mamma di Bob\n    James Hiroyuki Liao: Toshiaki\n    Christopher Lee: Dracula\n    Michael Keaton: Frankenstein\n\nDoppiatori italiani\n\n    Andrea Di Maggio: Victor Frankenstein\n    Veronica Puccio: Elsa Van Helsing\n    Chiara Colizzi: Susan Frankenstein\n    Mauro Gravina: Ben Frankenstein\n    Omero Antonutti: Sig. Rzykruski\n    Massimo Corvo: Sig. Burgemeister\n    Arturo Valli: Edgar 'E' Gore\n    Lorenzo Crisci: Bob\n    Alex Polidori: Nassor\n    Agnese Marteddu: Stranella\n    Gualtiero Cannarsi: Toshiaki\n\n\n\n[img]http://s19.postimage.org/i9hdvjydv/banner_trama.gif[/img]\n\nIl giovane appassionato di cinematografia e scienza Victor Frankenstein vive con i genitori nella monotona New Holland e ha come miglior amico il suo inseparabile cagnolino Sparky. Le doti di Victor sono osservate a scuola dai suoi compagni: la vicina di casa Elsa Van Helsing (nipote dell'acido Sindaco Bergermeister), il ragazzino gobbo Edgar, l'obeso Bob, il pretenzioso ragazzino asiatico Toshiaki, il sinistro Nassor e un'eccentrica ragazzina bionda chiamata Stranella....\n\n[img]http://s19.postimage.org/nwdqt10wj/banner_storyline.gif[/img]\n\nWhen young Victor's pet dog Sparky (who stars in Victor's home-made monster movies) is hit by a car, Victor decides to bring him back to life the only way he knows how. But when the bolt-necked &quot;monster&quot; wreaks havoc and terror in the hearts of Victor's neighbors......\n\n[img]http://s19.postimg.org/6kx66g40j/vlcsnap_2014_07_22_22h17m43s95.png[/img]\n\n[img]http://s19.postimg.org/gsfpiuq8j/vlcsnap_2014_07_22_22h17m49s153.png[/img]\n\n[img]http://s19.postimg.org/munc9ceoj/vlcsnap_2014_07_22_22h17m55s227.png[/img]\n\n\n[img]http://s19.postimage.org/f07k2tzo3/banner_dati_file.gif[/img]\n\n\n\n[spoiler]\nGeneral\nComplete name                            : Frankenweenie (2012).ita.eng.sub.ita.eng.MIRCrewFrankenweenie (2012).ita.eng.sub.ita.eng.MIRCrew.avi\nFormat                                   : AVI\nFormat/Info                              : Audio Video Interleave\nFile size                                : 1.40 GiB\nDuration                                 : 1h 23mn\nOverall bit rate                         : 2 411 Kbps\nWriting application                      : VirtualDubMod 1.5.10.2 (build 2540/release)\nWriting library                          : VirtualDubMod build 2540/release\n\nVideo\nID                                       : 0\nFormat                                   : MPEG-4 Visual\nFormat profile                           : Simple@L3\nFormat settings, BVOP                    : Yes\nFormat settings, QPel                    : No\nFormat settings, GMC                     : No warppoints\nFormat settings, Matrix                  : Default (H.263)\nCodec ID                                 : XVID\nCodec ID/Hint                            : XviD\nDuration                                 : 1h 23mn\nBit rate                                 : 1 500 Kbps\nWidth                                    : 720 pixels\nHeight                                   : 384 pixels\nDisplay aspect ratio                     : 1.875\nFrame rate                               : 25.000 fps\nColor space                              : YUV\nChroma subsampling                       : 4:2:0\nBit depth                                : 8 bits\nScan type                                : Progressive\nCompression mode                         : Lossy\nBits/(Pixel*Frame)                       : 0.217\nStream size                              : 895 MiB (62%)\n\nAudio #1\nID                                       : 1\nFormat                                   : AC-3\nFormat/Info                              : Audio Coding 3\nMode extension                           : CM (complete main)\nCodec ID                                 : 2000\nDuration                                 : 1h 23mn\nBit rate mode                            : Constant\nBit rate                                 : 448 Kbps\nChannel(s)                               : 6 channels\nChannel positions                        : Front: L C R, Side: L R, LFE\nSampling rate                            : 48.0 KHz\nBit depth                                : 16 bits\nCompression mode                         : Lossy\nStream size                              : 267 MiB (19%)\nAlignment                                : Split accross interleaves\nInterleave, duration                     : 40 ms (1.00 video frame)\nInterleave, preload duration             : 500 ms\n\nAudio #2\nID                                       : 2\nFormat                                   : AC-3\nFormat/Info                              : Audio Coding 3\nMode extension                           : CM (complete main)\nCodec ID                                 : 2000\nDuration                                 : 1h 23mn\nBit rate mode                            : Constant\nBit rate                                 : 448 Kbps\nChannel(s)                               : 6 channels\nChannel positions                        : Front: L C R, Side: L R, LFE\nSampling rate                            : 48.0 KHz\nBit depth                                : 16 bits\nCompression mode                         : Lossy\nStream size                              : 267 MiB (19%)\nAlignment                                : Split accross interleaves\nInterleave, duration                     : 40 ms (1.00 video frame)\nInterleave, preload duration             : 500 ms\n\n\n\n\n\n[/spoiler]\n\n[/color][/b][/center]","torrent":{"xt":"urn:btih:91b90c5db3b797527c164b06751a7bafb388e6ba","amp;dn":"Frankenweenie+%282012%29+%5BXviD+-+Italian+English++Ac3+5.1+-+Sub+Ita+","amp;tr":["udp%3A%2F%2Ftracker.openbittorrent.com%3A80","udp%3A%2F%2Fopen.demonii.com%3A1337","udp%3A%2F%2Ftracker.coppersurfer.tk%3A6969","udp%3A%2F%2Fexodus.desync.com%3A6969"],"infoHash":"91b90c5db3b797527c164b06751a7bafb388e6ba","infoHashBuffer":{"type":"Buffer","data":[145,185,12,93,179,183,151,82,124,22,75,6,117,26,123,175,179,136,230,186]},"announce":[],"urlList":[]}}